<?xml version="1.0" standalone="no"?>
<!DOCTYPE svg PUBLIC "-//W3C//DTD SVG 20010904//EN"
 "http://www.w3.org/TR/2001/REC-SVG-20010904/DTD/svg10.dtd">
<svg version="1.0" xmlns="http://www.w3.org/2000/svg"
 width="676.000000pt" height="676.000000pt" viewBox="0 0 676.000000 676.000000"
 preserveAspectRatio="xMidYMid meet">
<metadata>
Created by potrace 1.14, written by Peter Selinger 2001-2017
</metadata>
<g transform="translate(0.000000,676.000000) scale(0.100000,-0.100000)"
fill="#000000" stroke="none">
<path d="M2585 6523 c-192 -130 -497 -334 -677 -454 -180 -120 -329 -227 -332
-236 -3 -10 -8 -32 -11 -49 l-5 -31 113 3 c61 2 122 1 133 -2 13 -3 29 -23 40
-47 18 -39 19 -79 16 -847 -9 -2151 -8 -2371 13 -2560 9 -80 18 -321 20 -560
2 -140 6 -289 10 -330 3 -41 7 -131 9 -199 3 -107 0 -137 -20 -210 -23 -84
-24 -95 -24 -511 l0 -426 30 -18 31 -18 172 124 c665 479 747 540 748 562 0
11 2 32 4 46 2 14 11 97 21 185 15 148 15 223 -1 415 -24 300 -25 296 148 480
159 168 454 483 476 509 33 37 264 281 383 403 135 139 162 154 248 139 66
-12 146 -47 183 -80 17 -16 41 -38 53 -48 26 -23 60 -111 72 -188 15 -94 5
-279 -35 -630 -3 -27 -15 -66 -26 -85 -18 -28 -150 -192 -192 -236 -9 -10 -66
-74 -210 -234 -27 -31 -71 -80 -97 -109 -27 -29 -48 -58 -48 -64 0 -42 48
-223 75 -282 37 -79 59 -127 157 -345 129 -287 237 -498 270 -529 63 -59 62
-59 188 11 138 77 560 366 560 384 0 4 -25 47 -57 99 -10 17 -70 117 -123 206
-8 14 -60 100 -114 190 -54 90 -107 179 -118 197 l-19 34 83 114 c125 173 259
388 337 541 68 134 70 140 74 223 2 66 9 98 30 144 15 32 27 60 27 62 0 2 -21
4 -46 4 l-46 0 5 113 c4 76 1 139 -9 197 -8 47 -17 99 -20 115 -40 245 -42
252 -105 345 -64 94 -174 213 -258 279 -66 51 -165 103 -184 95 -7 -2 -63 20
-123 50 -117 59 -334 122 -364 105 -15 -8 -105 -95 -417 -399 -494 -482 -725
-705 -734 -708 -5 -2 -9 25 -10 60 -1 35 -2 79 -4 98 -1 19 -5 112 -9 205 -4
94 -9 211 -12 260 -2 50 -7 218 -10 375 -6 280 -5 289 24 495 l31 210 5 735
c6 790 17 1735 20 1813 1 26 2 47 2 46 -1 0 -158 -106 -351 -236z"/>
</g>
</svg>
