<?xml version="1.0" standalone="no"?>
<!DOCTYPE svg PUBLIC "-//W3C//DTD SVG 20010904//EN"
 "http://www.w3.org/TR/2001/REC-SVG-20010904/DTD/svg10.dtd">
<svg version="1.0" xmlns="http://www.w3.org/2000/svg"
 width="653.000000pt" height="653.000000pt" viewBox="0 0 653.000000 653.000000"
 preserveAspectRatio="xMidYMid meet">
<metadata>
Created by potrace 1.14, written by Peter Selinger 2001-2017
</metadata>
<g transform="translate(0.000000,653.000000) scale(0.100000,-0.100000)"
fill="#000000" stroke="none">
<path d="M2670 6418 c-85 -61 -190 -137 -232 -167 -42 -31 -103 -75 -135 -98
-32 -23 -144 -104 -250 -180 -106 -76 -202 -145 -213 -153 -12 -8 -44 -31 -70
-50 -26 -19 -58 -42 -70 -50 -12 -8 -37 -26 -55 -40 -17 -14 -55 -41 -83 -60
-61 -41 -77 -69 -56 -99 17 -24 48 -27 85 -8 76 40 175 55 200 30 37 -37 37
-2 37 -2760 0 -2088 3 -2677 12 -2688 18 -22 55 -18 83 8 14 12 64 58 112 102
49 44 107 98 130 120 24 22 84 78 136 125 51 47 101 92 109 100 63 59 247 228
262 242 11 9 62 56 114 104 l94 87 0 552 0 552 86 79 c48 44 92 84 98 89 12
10 48 43 217 198 53 48 106 95 117 105 31 28 183 164 215 194 17 15 59 54 96
87 36 33 86 78 111 100 l45 41 36 -38 c167 -174 254 -464 212 -710 -31 -184
-140 -399 -318 -627 -87 -111 -110 -138 -227 -258 -49 -50 -88 -97 -88 -105 0
-12 48 -106 113 -222 11 -19 33 -59 48 -87 16 -29 42 -77 58 -105 15 -29 37
-69 48 -88 11 -19 41 -75 68 -125 26 -49 51 -94 55 -100 4 -5 22 -37 40 -70
18 -33 44 -80 58 -105 13 -25 58 -107 100 -183 75 -139 96 -163 129 -150 15 6
565 392 598 420 6 5 45 33 89 63 43 30 85 64 93 76 18 28 18 28 -120 229 -56
83 -154 227 -217 320 -63 94 -117 172 -120 175 -5 5 -69 102 -84 127 -4 8 25
48 74 105 168 190 298 401 388 628 31 80 60 163 67 198 3 12 7 30 10 39 117
426 24 776 -292 1100 -191 196 -434 348 -604 377 -48 8 -83 -6 -139 -57 -26
-23 -73 -65 -106 -93 -32 -28 -95 -82 -139 -120 -44 -38 -91 -79 -105 -90 -14
-12 -48 -41 -76 -65 -65 -57 -132 -113 -274 -234 -63 -53 -126 -107 -140 -118
-14 -12 -52 -44 -85 -72 -33 -27 -71 -60 -85 -72 -14 -13 -28 -23 -32 -23 -3
0 -6 806 -6 1792 0 1705 -1 1793 -18 1805 -10 7 -25 13 -34 13 -8 0 -85 -50
-170 -112z"/>
</g>
</svg>
