<?xml version="1.0" standalone="no"?>
<!DOCTYPE svg PUBLIC "-//W3C//DTD SVG 20010904//EN"
 "http://www.w3.org/TR/2001/REC-SVG-20010904/DTD/svg10.dtd">
<svg version="1.0" xmlns="http://www.w3.org/2000/svg"
 width="800.000000pt" height="800.000000pt" viewBox="0 0 800.000000 800.000000"
 preserveAspectRatio="xMidYMid meet">
<metadata>
Created by potrace 1.14, written by Peter Selinger 2001-2017
</metadata>
<g transform="translate(0.000000,800.000000) scale(0.100000,-0.100000)"
fill="#000000" stroke="none">
<path d="M3330 6820 l0 -1000 670 0 670 0 0 1000 0 1000 -670 0 -670 0 0
-1000z"/>
<path d="M1375 6864 c-9 -14 -25 -35 -35 -47 -15 -17 -309 -386 -499 -625 -14
-19 -42 -53 -61 -76 -56 -69 -63 -77 -115 -146 -27 -36 -52 -67 -55 -70 -3 -3
-16 -18 -28 -34 l-22 -29 28 -21 c16 -12 47 -35 68 -52 21 -18 233 -186 469
-374 237 -189 473 -377 525 -419 52 -42 101 -82 110 -88 79 -64 302 -241 329
-261 l33 -26 32 36 c17 19 166 205 331 413 165 207 339 426 388 487 l87 109
-97 77 c-54 41 -103 81 -109 86 -6 6 -23 20 -38 31 -16 11 -33 25 -40 31 -6 5
-67 55 -136 109 -129 102 -1032 822 -1106 881 l-42 34 -17 -26z"/>
<path d="M6579 6867 c-9 -7 -34 -27 -55 -44 -22 -17 -68 -54 -104 -83 -36 -28
-72 -56 -80 -63 -8 -7 -226 -181 -485 -387 -258 -206 -479 -382 -490 -392 -11
-9 -89 -70 -173 -137 l-152 -120 127 -160 c71 -88 257 -322 416 -520 158 -199
291 -361 295 -361 6 0 50 34 182 140 19 15 152 121 295 235 143 114 276 219
295 235 251 202 769 613 780 620 13 7 11 13 -11 37 -14 15 -34 40 -45 54 -10
15 -46 60 -79 100 -33 41 -74 92 -91 115 -30 39 -58 74 -79 98 -5 6 -23 29
-39 51 -17 22 -33 42 -36 45 -3 3 -104 128 -223 278 -119 149 -220 272 -224
272 -5 0 -15 -6 -24 -13z"/>
<path d="M2020 4187 c-3 -3 -99 -26 -215 -52 -115 -26 -277 -63 -360 -82 -167
-39 -260 -60 -296 -67 -13 -2 -73 -16 -134 -31 -60 -14 -141 -33 -180 -41 -38
-9 -77 -17 -85 -19 -8 -3 -44 -11 -80 -19 -36 -8 -175 -40 -310 -71 -135 -31
-253 -57 -263 -58 -9 -1 -17 -6 -17 -13 0 -6 34 -159 75 -340 41 -181 108
-471 147 -645 l72 -315 145 33 c80 19 175 41 211 49 36 8 76 17 89 20 47 10
507 115 566 129 33 8 152 35 265 61 695 157 670 151 670 163 0 5 -18 87 -40
182 -22 96 -65 284 -95 419 -116 512 -161 701 -165 697z"/>
<path d="M5940 4038 c-18 -79 -46 -201 -62 -273 -16 -71 -67 -296 -114 -499
-46 -204 -83 -375 -80 -382 2 -6 24 -15 48 -19 50 -9 41 -7 183 -40 153 -35
434 -100 595 -136 74 -16 191 -43 260 -59 158 -37 429 -99 455 -105 11 -2 58
-13 105 -24 237 -53 290 -64 294 -60 2 2 25 96 51 209 25 113 52 232 60 265
18 77 92 398 145 634 23 100 38 186 33 190 -4 5 -42 15 -83 24 -41 9 -176 39
-300 68 -124 28 -281 64 -350 79 -185 42 -667 152 -720 165 -21 5 -202 46
-220 50 -8 2 -65 15 -127 29 -61 14 -118 26 -126 26 -10 0 -23 -42 -47 -142z"/>
<path d="M2498 2392 c-44 -92 -102 -212 -128 -267 -26 -55 -87 -181 -135 -280
-48 -99 -107 -220 -130 -270 -23 -49 -83 -173 -132 -275 -50 -102 -109 -225
-133 -275 -23 -49 -62 -129 -86 -177 l-44 -87 103 -50 c56 -27 179 -86 272
-131 94 -45 206 -99 250 -120 44 -21 172 -83 285 -137 113 -55 223 -108 245
-118 22 -10 43 -20 48 -22 4 -3 38 60 76 139 38 79 103 215 146 303 43 88 103
214 135 280 117 244 179 374 255 530 42 88 95 198 117 245 22 47 65 133 94
192 l54 108 -103 49 c-181 86 -347 166 -571 275 -120 58 -220 106 -223 106 -2
0 -63 30 -136 66 -72 36 -142 70 -155 75 -22 8 -27 1 -104 -159z"/>
<path d="M5335 2521 c-44 -21 -142 -68 -217 -105 -373 -179 -659 -317 -795
-382 l-112 -53 51 -103 c27 -57 65 -134 83 -173 18 -38 68 -142 110 -230 138
-285 216 -447 275 -570 32 -66 92 -192 135 -280 43 -88 108 -224 146 -303 38
-79 72 -141 76 -139 5 2 26 12 48 22 22 10 132 63 245 118 113 54 241 116 285
137 44 21 157 75 250 120 94 45 216 104 272 131 l102 49 -43 88 c-24 48 -62
125 -84 172 -22 47 -84 175 -137 285 -54 110 -119 245 -145 300 -26 55 -80
168 -120 250 -40 83 -94 195 -120 250 -94 198 -220 455 -222 455 -2 -1 -39
-18 -83 -39z"/>
</g>
</svg>
